<mxfile host="app.diagrams.net" modified="2023-11-20T16:51:12.838Z" agent="Mozilla/5.0 (X11; Linux x86_64; rv:109.0) Gecko/20100101 Firefox/119.0" version="22.1.3" etag="H34cd5zItvZTfkvZx8YV" type="github">
  <diagram name="Page-1" id="EXvk1av4QzbM2JEnsB6L">
    <mxGraphModel>
      <root>
        <mxCell id="0" />
        <mxCell id="1" parent="0" />
      </root>
    </mxGraphModel>
  </diagram>
</mxfile>
